<svg xmlns="http://www.w3.org/2000/svg" xmlns:xlink="http://www.w3.org/1999/xlink" viewBox="0 0 1196.75 534.32"><defs><style>.cls-1{fill:none;}.cls-2{clip-path:url(#clip-path);}.cls-3{fill:#c4c4c4;}.cls-4{fill:#fff;}.cls-5{fill:#0083ca;}.cls-6{fill:#00afa0;}</style><clipPath id="clip-path" transform="translate(0 0)"><rect class="cls-1" width="1196.75" height="534.32"/></clipPath></defs><g id="Layer_2" data-name="Layer 2"><g id="_Layer_" data-name="&lt;Layer&gt;"><g id="DC_Logo_White" data-name="DC Logo White"><g class="cls-2"><g class="cls-2"><path class="cls-3" d="M0,476.38V437.17c0-38.33,18.73-57.94,55.08-57.94,33.47,0,52,16.74,53.52,48.69H96.26c-1.53-24.68-15.41-37-41.18-37-28.65,0-42.52,15.2-42.52,47.14V475.5c0,31.93,13.87,47.14,42.52,47.14,25.55,0,39.65-11.9,41.18-36.79H108.6c-1.54,31.73-20,48.47-53.52,48.47C18.94,534.32,0,514.71,0,476.38" transform="translate(0 0)"/><path class="cls-3" d="M179.5,381.87h12.78l57.05,149.8H235.89l-16.07-42.29H151.3l-16.08,42.29h-13Zm35.91,95.84-29.74-80.2-30,80.2Z" transform="translate(0 0)"/><path class="cls-3" d="M273.76,381.87h55.29c33.92,0,48.67,13.66,48.67,44.28S363,470.21,329.05,470.21H286.3v61.46H273.76Zm54.84,76.67c26.22,0,36.35-9.26,36.35-32.39,0-23.35-10.13-32.6-36.35-32.6H286.3v65Z" transform="translate(0 0)"/><rect class="cls-3" x="405.67" y="381.87" width="12.56" height="149.8"/><polygon class="cls-3" points="488.93 393.55 441.79 393.55 441.79 381.87 548.85 381.87 548.85 393.55 501.49 393.55 501.49 531.67 488.93 531.67 488.93 393.55"/><path class="cls-3" d="M596,381.87h12.78l57.06,149.8H652.36l-16.07-42.29H567.77l-16.08,42.29h-13Zm35.91,95.84-29.73-80.2-30,80.2Z" transform="translate(0 0)"/><polygon class="cls-3" points="690.22 381.88 702.77 381.88 702.77 520 781.42 520 781.42 531.67 690.22 531.67 690.22 381.88"/><path class="cls-4" d="M58.54,183H6.35v150.1H58.54c39.15,0,57.38-18.64,57.38-58.66V241.68c0-40-18.23-58.66-57.38-58.66M29.25,204.21H56.17C82.68,204.21,93,214.78,93,241.9v32.33c0,27.14-10.32,37.7-36.83,37.7H29.25Z" transform="translate(0 0)"/><path class="cls-4" d="M229.65,271.78c20.3-4.74,29.4-18.25,29.4-43.46,0-31.75-14.65-45.3-49-45.3h-58v150.1H175v-59.5h29.37l34.92,59.5h26.49ZM175,204.21h33.39c20.77,0,27.78,6.08,27.78,24.11s-7,24.12-27.78,24.12H175Z" transform="translate(0 0)"/><rect class="cls-4" x="294.55" y="183.03" width="22.91" height="150.1"/><polygon class="cls-4" points="450.05 204.21 450.05 183.03 352.54 183.03 352.54 333.12 375.45 333.12 375.45 266.94 439.26 266.94 439.26 245.76 375.45 245.76 375.45 204.21 450.05 204.21"/><polygon class="cls-4" points="466.14 183.03 466.14 204.43 509.48 204.43 509.48 333.13 532.37 333.13 532.37 204.43 575.7 204.43 575.7 183.03 466.14 183.03"/><polygon class="cls-4" points="753.02 183.03 724.37 293.12 694.05 183.03 672.41 183.03 642.31 292.69 613.66 183.03 589.98 183.03 630.37 333.13 652.66 333.13 683.01 224.31 713.16 333.13 735.67 333.13 776.06 183.03 753.02 183.03"/><path class="cls-4" d="M849,180.44c-38.92,0-58.66,20.24-58.66,60.16v34.93c0,39.93,19.74,60.18,58.66,60.18s58.67-20.25,58.67-60.18V240.6c0-39.92-19.73-60.16-58.67-60.16M813.26,240.6c0-27,11-39,35.75-39s35.76,12,35.76,39v34.93c0,27-11,39-35.76,39s-35.75-12-35.75-39Z" transform="translate(0 0)"/><path class="cls-4" d="M994.3,180.44c-38.93,0-58.66,20.24-58.66,60.16v34.93c0,39.93,19.73,60.18,58.66,60.18S1053,315.46,1053,275.53V240.6c0-39.92-19.74-60.16-58.67-60.16M958.55,240.6c0-27,11-39,35.75-39s35.76,12,35.76,39v34.93c0,27-11,39-35.76,39s-35.75-12-35.75-39Z" transform="translate(0 0)"/><path class="cls-4" d="M1139.37,183h-52.19v150.1h52.19c39.15,0,57.38-18.64,57.38-58.66V241.68c0-40-18.23-58.66-57.38-58.66m-29.29,21.19H1137c26.51,0,36.84,10.57,36.84,37.69v32.33c0,27.14-10.33,37.7-36.84,37.7h-26.92Z" transform="translate(0 0)"/><path class="cls-4" d="M885.11,2.3C862.62,6.59,848,15.53,836.88,26.6c-14.78,14.68-34.38,38.76-37.8,73.11-.25,2.56-2.7,30.67-1.36,30.68q105.43.15,210.85.28c30.37,0,53.36-.09,77.35-10.27,25.06-10.65,44.39-31.66,55.85-55.55,8-16.74,12.44-31.59,14.47-48l-21-16.68S998.12,0,918.38,0C909.73,0,901,0,892.47,1.07c-2.47.31-4.91.77-7.36,1.23M1014.37,111c-52.88.07-81.88.14-134.74.21,1.64-27.88,18.73-44.75,44.29-49.95,15.83-3.21,33.65-2.81,49.84-2.77,51.89.15,93.47-.49,145.37-.36-8.33,21.8-28.14,39.57-47.32,47.13-14.67,5.79-32.69,5.23-48.65,5.6-4.91.12-3.91.13-8.79.14" transform="translate(0 0)"/><path class="cls-5" d="M1015.6,95.38c4.87,0,3.87,0,8.79-.14,16-.38,34.46,1,48.65-5.6,10.69-5,21.52-17,29.93-31.54h16.18c-8.34,21.8-28.14,39.57-47.33,47.13-14.66,5.79-32.67,5.23-48.63,5.59-4.93.12-3.92.14-8.81.14-52.85.07-81.86.15-134.73.22a54,54,0,0,1,2.83-15.6c52.83-.06,80.26-.14,133.12-.21" transform="translate(0 0)"/><path class="cls-6" d="M918.38,16.56c-8.65,0-17.35,0-25.92,1.07-2.46.31-4.9.77-7.35,1.23-22.49,4.28-37.1,13.23-48.24,24.3-14.77,14.67-34.37,44.26-37.78,78.61-.09.81-.39,4.29-.73,8.62h-.64c-1.35,0,1.11-28.13,1.37-30.68,3.41-34.35,23-58.44,37.79-73.11,11.13-11.06,25.74-20,48.23-24.3,2.45-.46,4.89-.92,7.35-1.23C901,0,909.73,0,918.38,0l216.88.14,20.93,16.56-237.81-.14" transform="translate(0 0)"/></g></g></g></g></g></svg>